<svg xmlns="http://www.w3.org/2000/svg" viewBox="0 0 24 24">
  <path fill="#4285F4" d="M23.49 12.27c0-.82-.07-1.43-.22-2.06H12v3.9h6.62c-.13.97-.85 2.44-2.45 3.42l-.02.13 3.56 2.7.25.02c2.27-2.06 3.53-5.08 3.53-8.11z"/>
  <path fill="#34A853" d="M12 24c3.24 0 5.96-1.05 7.95-2.86l-3.78-2.95c-1.01.69-2.37 1.18-4.17 1.18a7.24 7.24 0 0 1-6.85-4.91l-.14.01-3.7 2.8-.05.13A12 12 0 0 0 12 24z"/>
  <path fill="#FBBC05" d="M5.15 14.46A7.4 7.4 0 0 1 4.76 12c0-.86.14-1.68.37-2.46l-.01-.16-3.75-2.85-.12.06A11.93 11.93 0 0 0 0 12c0 1.94.48 3.77 1.32 5.4l3.83-2.94z"/>
  <path fill="#EA4335" d="M12 4.63c2.25 0 3.77.95 4.64 1.75l3.39-3.25C17.94 1.19 15.24 0 12 0A12 12 0 0 0 1.25 6.6l3.88 2.94A7.26 7.26 0 0 1 12 4.63z"/>
</svg>
